# xmcd CD database file
#
# Track frame offsets:
#	150
#	14463
#	25161
#	36711
#	48108
#	59733
#	69754
#	83504
#	93430
#	105134
#	118032
#	131927
#	151095
#	168151
#	181085
#
# Disc length: 2523 seconds
#
# Revision: 0
# Processed by: cddbd v1.4PL0 Copyright (c) Steve Scherf et al.
# Submitted via: CDex 1.40Beta8
#
DISCID=b509d90f
DTITLE=Black Hills Country Band - Some of the best
DYEAR=1900
DGENRE=Country
TTITLE0=Good for nothin' guitar pickin man
TTITLE1=Promised land
TTITLE2=What I've got in mind
TTITLE3=My truck
TTITLE4=Stand on it
TTITLE5=Are you ready
TTITLE6=I fell in love again last night
TTITLE7=Tokyo polka
TTITLE8=It's so easy
TTITLE9=New spirit
TTITLE10=Two more bottles of wine
TTITLE11=I wish I knew
TTITLE12=It's no use
TTITLE13=Hey Karen
TTITLE14=Walk them golden stairs
EXTD=ID3G: 2
EXTT0=
EXTT1=
EXTT2=
EXTT3=
EXTT4=
EXTT5=
EXTT6=
EXTT7=
EXTT8=
EXTT9=
EXTT10=
EXTT11=
EXTT12=
EXTT13=
EXTT14=
PLAYORDER=
